
Format                         : MPEG-TS

File size                      : 272 MiB

Duration                       : 4mn 8s

Overall bit rate mode          : Variable

Overall bit rate               : 9 165 Kbps



Video

ID                             : 5408 (0x1520)

Menu ID                        : 1 (0x1)

Format                         : AVC

Format/Info                    : Advanced Video Codec

Format profile                 : Main@L4.0

Format settings, CABAC         : Yes

Format settings, ReFrames      : 2 frames

Codec ID                       : 27

Duration                       : 4mn 8s

Bit rate                       : 8 324 Kbps

Width                          : 1 920 pixels

Height                         : 1 080 pixels

Display aspect ratio           : 16:9

Frame rate                     : 29.970 fps

Color space                    : YUV

Chroma subsampling             : 4:2:0

Bit depth                      : 8 bits

Scan type                      : MBAFF

Bits/(Pixel*Frame)             : 0.134

Stream size                    : 247 MiB (91%)

Color primaries                : BT.709

Transfer characteristics       : BT.709

Matrix coefficients            : BT.709



Audio

ID                             : 5409 (0x1521)

Menu ID                        : 1 (0x1)

Format                         : AC-3

Format/Info                    : Audio Coding 3

Mode extension                 : CM (complete main)

Format settings, Endianness    : Big

Codec ID                       : 129

Duration                       : 4mn 8s

Bit rate mode                  : Constant

Bit rate                       : 384 Kbps

Channel(s)                     : 2 channels

Channel positions              : Front: L R

Sampling rate                  : 48.0 KHz

Bit depth                      : 16 bits

Compression mode               : Lossy

Stream size                    : 11.4 MiB (4%)

Language                       : English